<?xml version='1.0' encoding='utf-8'?>
<svg xmlns="http://www.w3.org/2000/svg" width="91.44mm" height="91.44mm" version="1.1" style="shape-rendering:geometricPrecision; text-rendering:geometricPrecision; image-rendering:optimizeQuality; fill-rule:evenodd; clip-rule:evenodd" viewBox="0 0 9144 9144"> <defs> <style type="text/css">  .fil1 {fill:#E6E9EE} .fil0 {fill:white} .fil2 {fill:#364F6B;fill-rule:nonzero}  </style> </defs> <g id="Layer_x0020_1"> <metadata id="CorelCorpID_0Corel-Layer"/> <g id="_3166623082576"> <polygon class="fil0" points="0,0 9144,0 9144,9144 0,9144 "/> <path class="fil1" d="M2262 5264c-50,112 -68,232 -57,351 12,118 53,235 123,339 152,231 442,400 847,400 4,0 8,0 12,1l2445 7c99,-8 184,-42 251,-92 75,-55 130,-130 163,-213 13,-33 23,-69 30,-105l1 -3c6,-36 8,-71 7,-105 -1,-36 -6,-71 -15,-105 -8,-32 -20,-63 -37,-94 -37,-71 -98,-132 -184,-175 -81,-41 -184,-64 -312,-64l0 -1 -26 0c-50,3 -101,7 -151,11 -47,3 -88,-33 -91,-80l0 -12c4,-51 9,-102 12,-153l1 -10c0,-17 -1,14 -1,-19 0,-57 -7,-113 -20,-166 -13,-55 -33,-108 -59,-159 -28,-54 -62,-105 -102,-153 -40,-48 -87,-94 -139,-136 -54,-43 -112,-82 -176,-116 -63,-34 -130,-63 -200,-86 -70,-23 -144,-41 -221,-54 -73,-11 -151,-17 -232,-17 -81,0 -159,6 -233,17 -77,13 -151,31 -220,54 -70,23 -137,52 -201,86 -63,34 -122,73 -175,116 -16,13 -30,25 -42,36 -10,8 -21,19 -35,32 -2,4 -6,7 -9,10 -12,12 -23,24 -33,35 -10,11 -21,24 -33,39l-26 32c-13,17 -32,28 -52,31l-40 7 -3 1c-412,73 -661,275 -767,513z"/> <path class="fil1" d="M4637 4165c81,27 157,60 228,98 72,38 139,83 201,133 60,48 115,102 163,160 49,58 90,119 123,183 32,63 57,129 74,197 16,67 25,136 25,206 0,17 0,-8 -1,21l0 14 -1 15 -2 35 1042 3c100,-9 184,-42 252,-92 74,-55 129,-130 163,-213 13,-33 23,-69 30,-105l0 -3c6,-36 9,-71 8,-105 -1,-36 -6,-71 -15,-105 -8,-32 -21,-63 -37,-94 -38,-71 -99,-133 -184,-175 -81,-41 -184,-65 -312,-65 -60,0 -119,6 -178,11 -47,3 -87,-33 -90,-80 -1,-4 -1,-8 0,-12 4,-53 11,-109 12,-163l0 -19c0,-57 -7,-113 -20,-166 -14,-55 -34,-108 -60,-159 -28,-54 -62,-105 -101,-153 -41,-48 -88,-94 -140,-136 -53,-43 -112,-82 -175,-116 -64,-34 -131,-63 -201,-86 -69,-24 -143,-42 -220,-54 -74,-11 -152,-18 -233,-18 -81,0 -159,7 -232,18 -77,12 -151,30 -221,54 -70,23 -137,52 -200,86 -64,34 -122,73 -176,116l-42 36c-9,8 -21,19 -34,32 -3,4 -6,7 -9,10 -13,12 -23,24 -33,34 -11,12 -22,25 -33,40l-26 32c-14,17 -32,28 -52,31l-41 7c-75,14 -146,31 -211,53 -243,80 -411,213 -509,369 -93,147 -125,314 -102,476 9,-10 18,-19 26,-28l7 -7c12,-12 27,-27 46,-44 17,-15 34,-29 49,-41 62,-50 129,-95 201,-133 71,-38 147,-71 228,-98 79,-27 162,-47 247,-60 85,-14 172,-21 260,-21 87,0 174,7 259,21 85,13 168,33 247,60z"/> <path class="fil2" d="M5447 5057l1042 3c100,-9 184,-42 252,-92 74,-55 129,-130 163,-213 13,-33 23,-69 30,-105l0 -3c6,-36 9,-71 8,-105 -1,-36 -6,-71 -15,-105 -8,-32 -21,-63 -37,-94 -38,-71 -99,-133 -184,-175 -81,-41 -184,-65 -312,-65 -60,0 -119,6 -178,11 -47,3 -87,-33 -90,-80 -1,-4 -1,-8 0,-12 4,-53 11,-109 12,-163l0 -19c0,-57 -7,-113 -20,-166 -14,-55 -34,-108 -60,-159 -28,-54 -62,-105 -101,-153 -41,-48 -88,-94 -140,-136 -53,-43 -112,-82 -175,-116 -64,-34 -131,-63 -201,-86 -69,-24 -143,-42 -220,-54 -74,-11 -152,-18 -233,-18 -81,0 -159,7 -232,18 -77,12 -151,30 -221,54 -70,23 -137,52 -200,86 -64,34 -122,73 -176,116 -15,13 -29,25 -42,36 -9,8 -21,19 -34,32 -3,4 -6,7 -9,10 -13,12 -23,24 -33,34 -11,12 -22,25 -33,40l-26 32c-14,17 -32,28 -52,31l-41 7c-75,14 -146,31 -211,53 -243,80 -411,213 -509,369 -93,147 -125,314 -102,476 9,-10 18,-19 26,-28l7 -7c12,-12 27,-27 46,-44 17,-15 34,-29 49,-41 62,-50 129,-95 201,-133 71,-38 147,-71 228,-98 79,-27 162,-47 247,-60 85,-14 172,-21 260,-21 87,0 174,7 259,21 85,13 168,33 247,60 81,27 157,60 228,98 72,38 139,83 201,133 60,48 115,102 163,160 49,58 90,119 123,183 32,63 57,129 74,197 16,67 25,136 25,206 0,17 0,-8 -1,21l0 14 -1 15 -2 35zm-2415 -477l-3 1c-412,73 -661,275 -767,513 -50,112 -68,232 -57,351 12,118 53,235 123,339 152,231 442,400 847,400 4,0 8,0 12,1l2445 7c99,-8 184,-42 251,-92 75,-55 130,-130 163,-213 13,-33 23,-69 30,-105l1 -3c6,-36 8,-71 7,-105 -1,-36 -6,-71 -15,-105 -8,-32 -20,-63 -37,-94 -37,-71 -98,-132 -184,-175 -81,-41 -184,-64 -312,-64l0 -1 -26 0c-50,3 -101,7 -151,11 -47,3 -88,-33 -91,-80l0 -12c4,-51 9,-102 12,-153l1 -10c0,-17 -1,14 -1,-19 0,-57 -7,-113 -20,-166 -13,-55 -33,-108 -59,-159 -28,-54 -62,-105 -102,-153 -40,-48 -87,-94 -139,-136 -54,-43 -112,-82 -176,-116 -63,-34 -130,-63 -200,-86 -70,-23 -144,-41 -221,-54 -73,-11 -151,-17 -232,-17 -81,0 -159,6 -233,17 -77,13 -151,31 -220,54 -70,23 -137,52 -201,86 -63,34 -122,73 -175,116 -16,13 -30,25 -42,36 -10,8 -21,19 -35,32 -2,4 -6,7 -9,10 -12,12 -23,24 -33,35 -10,11 -21,24 -33,39l-26 32c-13,17 -32,28 -52,31l-40 7zm-122 -149c-3,-11 -5,-23 -7,-35 -37,-208 1,-426 122,-616 118,-188 316,-347 600,-441 72,-24 151,-44 235,-59l9 -1 6 -7c11,-14 24,-30 39,-47 13,-14 25,-27 37,-39 2,-3 4,-5 7,-7 12,-12 27,-27 46,-44 17,-15 33,-29 49,-42 62,-49 129,-94 201,-133 71,-38 147,-71 228,-97 79,-27 162,-47 247,-61 85,-13 172,-20 259,-20 88,0 175,7 259,20 86,14 169,34 248,61 81,26 157,59 227,97 73,39 140,84 202,133 60,49 115,103 163,161 48,58 89,119 122,183 33,63 57,129 74,197 17,67 25,136 25,206l0 21c0,10 0,19 -1,29l-1 20 -3 27c32,-2 59,-4 91,-4 155,0 284,31 388,82 119,60 205,147 258,248 22,41 39,86 51,132 12,46 19,93 21,141 1,48 -2,95 -10,141l-1 3c-8,46 -21,93 -40,138 -44,112 -119,213 -220,287 -91,68 -205,113 -337,125l-8 0 -448 -1c57,48 102,104 135,166 22,41 39,86 51,132 12,46 19,94 20,141 2,48 -2,95 -10,141l0 3c-8,46 -22,93 -40,139 -45,111 -119,212 -220,286 -92,68 -205,114 -338,125l-7 0 -2456 -7 -17 0c-464,-3 -799,-204 -980,-477 -85,-127 -136,-271 -150,-417 -14,-147 9,-297 71,-437 119,-267 381,-495 803,-593z"/> </g> </g> </svg>