<?xml version='1.0' encoding='utf-8'?>
<svg xmlns="http://www.w3.org/2000/svg" width="91.44mm" height="91.44mm" version="1.1" style="shape-rendering:geometricPrecision; text-rendering:geometricPrecision; image-rendering:optimizeQuality; fill-rule:evenodd; clip-rule:evenodd" viewBox="0 0 9144 9144"> <defs> <style type="text/css">  .fil2 {fill:#43DDE6} .fil1 {fill:#E6E9EE} .fil0 {fill:white} .fil3 {fill:#364F6B;fill-rule:nonzero}  </style> </defs> <g id="Layer_x0020_1"> <metadata id="CorelCorpID_0Corel-Layer"/> <g id="_3166634138816"> <polygon class="fil0" points="0,0 9144,0 9144,9144 0,9144 "/> <path class="fil1" d="M2627 4304c12,119 54,236 123,341 154,231 444,401 851,401 4,0 8,0 12,1l2452 7c100,-8 185,-42 253,-92 74,-55 130,-131 163,-214 14,-34 24,-69 30,-106 7,-37 10,-73 9,-109 -2,-35 -6,-70 -15,-104 -9,-33 -21,-65 -37,-95 -38,-71 -99,-133 -186,-176 -81,-41 -185,-65 -313,-65 -59,0 -119,6 -178,10 -47,3 -87,-32 -90,-78l0 -13c4,-53 11,-110 13,-163 0,-18 -1,14 -1,-19 0,-58 -7,-113 -20,-167 -13,-55 -34,-109 -60,-160 -28,-54 -62,-105 -102,-153 -40,-49 -87,-94 -140,-137 -53,-43 -112,-82 -176,-116 -63,-34 -131,-63 -201,-87 -70,-23 -144,-41 -221,-53 -74,-12 -152,-18 -234,-18 -81,0 -159,6 -233,18 -77,12 -151,30 -221,53 -71,24 -138,53 -202,87 -63,34 -122,73 -175,116 -16,13 -30,25 -43,36 -9,9 -21,20 -34,33l-9 9c-13,13 -24,24 -34,35l0 1c-12,13 -23,26 -33,39l-26 32c-13,17 -32,27 -51,31l-41 7c-415,73 -666,276 -773,515 -50,113 -68,234 -57,353z"/> <path class="fil2" d="M2970 5619c-259,203 -349,375 -346,502 2,106 77,178 164,202 87,23 186,-3 240,-93 64,-109 69,-304 -58,-611z"/> <path class="fil2" d="M4737 5619c-259,203 -349,375 -346,502 2,106 76,178 164,202 86,23 186,-3 239,-93 64,-109 69,-304 -57,-611z"/> <path class="fil2" d="M6419 5619c-259,203 -349,375 -346,502 2,106 77,178 164,202 87,23 186,-3 239,-93 64,-109 70,-304 -57,-611z"/> <path class="fil3" d="M3609 5047l-8 0c-3,0 -6,0 -9,-1 -465,-2 -801,-204 -983,-477 -85,-128 -135,-272 -150,-418 -14,-148 9,-298 71,-438 128,-286 420,-529 898,-613l9 -1 6 -8c13,-16 26,-31 40,-47l0 1c12,-14 25,-27 37,-40 2,-2 4,-5 6,-7 12,-12 28,-27 47,-44 17,-15 33,-29 49,-41 62,-50 129,-95 201,-134 72,-38 148,-71 228,-98l1 0c79,-26 162,-47 248,-60 85,-14 172,-21 259,-21 88,0 175,7 260,21 86,13 169,34 248,60 81,27 158,60 228,98 73,39 140,84 202,134 61,48 116,102 164,160 48,58 89,120 122,184 33,63 58,129 74,197 17,67 26,137 26,207 0,17 -1,-8 -1,20 0,10 0,20 -1,30l-1 20 -2 28 46 -3c15,-1 30,-1 45,-1 156,0 285,30 389,82 120,60 205,147 259,248l0 1c22,42 39,86 51,131 12,46 19,94 20,142 2,49 -2,97 -10,143 -8,47 -22,94 -40,140 -45,111 -119,212 -220,287 -92,68 -206,113 -339,125l-7 0 -2463 -7zm-639 404c-259,203 -349,375 -346,502 2,106 77,178 164,202 87,23 186,-3 240,-93 64,-109 69,-304 -58,-611zm-515 505c-4,-187 122,-434 496,-701 6,-5 12,-9 19,-12 42,-20 92,-1 112,41 197,422 186,701 91,863 -97,165 -274,212 -429,171 -153,-41 -284,-171 -289,-362zm3964 -505c-259,203 -349,375 -346,502 2,106 77,178 164,202 87,23 186,-3 239,-93 64,-109 70,-304 -57,-611zm-515 505c-4,-187 122,-434 496,-701 5,-5 12,-9 18,-12 43,-20 93,-1 113,41 197,422 186,701 91,863 -97,165 -274,212 -429,171 -153,-41 -284,-171 -289,-362zm-1167 -505c-259,203 -349,375 -346,502 2,106 76,178 164,202 86,23 186,-3 239,-93 64,-109 69,-304 -57,-611zm-515 505c-4,-187 122,-434 495,-701 6,-5 12,-9 19,-12 42,-20 93,-1 112,41 197,422 187,701 91,863 -96,165 -274,212 -428,171 -154,-41 -285,-171 -289,-362zm1403 -705c23,-40 75,-54 115,-31 41,24 54,75 31,116l-281 486 134 0c47,0 85,38 85,84 0,19 -6,36 -16,50l-315 545c-23,40 -75,54 -115,31 -40,-23 -54,-75 -31,-115l246 -426 -134 0c-14,0 -29,-4 -42,-11 -41,-24 -54,-76 -31,-116l354 -613zm-1775 0c23,-40 75,-54 115,-31 41,24 54,75 31,116l-280 486 133 0c47,0 85,38 85,84 0,19 -6,36 -16,50l-315 545c-23,40 -75,54 -115,31 -40,-23 -54,-75 -31,-115l246 -426 -134 0c-14,0 -29,-4 -42,-11 -41,-24 -54,-76 -31,-116l354 -613zm-237 -373l2452 7c100,-8 185,-42 253,-92 74,-55 130,-131 163,-214 14,-34 24,-69 30,-106 7,-37 10,-73 9,-109 -2,-35 -6,-70 -15,-104 -9,-33 -21,-65 -37,-95 -38,-71 -99,-133 -186,-176 -81,-41 -185,-65 -313,-65 -59,0 -119,6 -178,10 -47,3 -87,-32 -90,-78l0 -13c4,-53 11,-110 13,-163 0,-18 -1,14 -1,-19 0,-58 -7,-113 -20,-167 -13,-55 -34,-109 -60,-160 -28,-54 -62,-105 -102,-153 -40,-49 -87,-94 -140,-137 -53,-43 -112,-82 -176,-116 -63,-34 -131,-63 -201,-87 -70,-23 -144,-41 -221,-53 -74,-12 -152,-18 -234,-18 -81,0 -159,6 -233,18 -77,12 -151,30 -221,53 -71,24 -138,53 -202,87 -63,34 -122,73 -175,116 -16,13 -30,25 -43,36 -9,9 -21,20 -34,33l-9 9c-13,13 -24,24 -34,35l0 1c-12,13 -23,26 -33,39l-26 32c-13,17 -32,27 -51,31l-41 7c-415,73 -666,276 -773,515 -50,113 -68,234 -57,353 12,119 54,236 123,341 154,231 444,401 851,401 4,0 8,0 12,1z"/> </g> </g> </svg>