<?xml version='1.0' encoding='utf-8'?>
<svg xmlns="http://www.w3.org/2000/svg" width="91.44mm" height="91.44mm" version="1.1" style="shape-rendering:geometricPrecision; text-rendering:geometricPrecision; image-rendering:optimizeQuality; fill-rule:evenodd; clip-rule:evenodd" viewBox="0 0 9144 9144"> <defs> <style type="text/css">  .fil1 {fill:#E6E9EE} .fil3 {fill:#F0F0F0} .fil4 {fill:#FCCF4D} .fil0 {fill:white} .fil2 {fill:#364F6B;fill-rule:nonzero}  </style> </defs> <g id="Layer_x0020_1"> <metadata id="CorelCorpID_0Corel-Layer"/> <g id="_3166634172800"> <polygon class="fil0" points="0,0 9144,0 9144,9144 0,9144 "/> <path class="fil1" d="M2262 5264c-50,112 -68,232 -57,351 12,118 53,235 123,339 152,231 442,400 847,400 4,0 8,0 12,1l2445 7c99,-8 184,-42 251,-92 75,-55 130,-130 163,-213 13,-33 23,-69 30,-105l1 -3c6,-36 8,-71 7,-105 -1,-36 -6,-71 -15,-105 -8,-32 -20,-63 -37,-94 -37,-71 -98,-132 -184,-175 -81,-41 -184,-64 -312,-64l0 -1 -26 0c-50,3 -101,7 -151,11 -47,3 -88,-33 -91,-80l0 -12c4,-51 9,-102 12,-153l1 -10c0,-17 -1,14 -1,-19 0,-57 -7,-113 -20,-166 -13,-55 -33,-108 -59,-159 -28,-54 -62,-105 -102,-153 -40,-48 -87,-94 -139,-136 -54,-43 -112,-82 -176,-116 -63,-34 -130,-63 -200,-86 -70,-23 -144,-41 -221,-54 -73,-11 -151,-17 -232,-17 -81,0 -159,6 -233,17 -77,13 -151,31 -220,54 -70,23 -137,52 -201,86 -63,34 -122,73 -175,116 -16,13 -30,25 -42,36 -10,8 -21,19 -35,32 -2,4 -6,7 -9,10 -12,12 -23,24 -33,35 -10,11 -21,24 -33,39l-26 32c-13,17 -32,28 -52,31l-40 7 -3 1c-412,73 -661,275 -767,513z"/> <path class="fil1" d="M4637 4165c81,27 157,60 228,98 72,38 139,83 201,133 60,48 115,102 163,160 49,58 90,119 123,183 32,63 57,129 74,197 16,67 25,136 25,206 0,17 0,-8 -1,21l0 14 -1 15 -2 35 1042 3c100,-9 184,-42 252,-92 74,-55 129,-130 163,-213 13,-33 23,-69 30,-105l0 -3c6,-36 9,-71 8,-105 -1,-36 -6,-71 -15,-105 -8,-32 -21,-63 -37,-94 -38,-71 -99,-133 -184,-175 -81,-41 -184,-65 -312,-65 -60,0 -119,6 -178,11 -47,3 -87,-33 -90,-80 -1,-4 -1,-8 0,-12 4,-53 11,-109 12,-163l0 -19c0,-57 -7,-113 -20,-166 -14,-55 -34,-108 -60,-159 -28,-54 -62,-105 -101,-153 -41,-48 -88,-94 -140,-136 -53,-43 -112,-82 -175,-116 -64,-34 -131,-63 -201,-86 -69,-24 -143,-42 -220,-54 -74,-11 -152,-18 -233,-18 -81,0 -159,7 -232,18 -77,12 -151,30 -221,54 -70,23 -137,52 -200,86 -64,34 -122,73 -176,116l-42 36c-9,8 -21,19 -34,32 -3,4 -6,7 -9,10 -13,12 -23,24 -33,34 -11,12 -22,25 -33,40l-26 32c-14,17 -32,28 -52,31l-41 7c-75,14 -146,31 -211,53 -243,80 -411,213 -509,369 -93,147 -125,314 -102,476 9,-10 18,-19 26,-28l7 -7c12,-12 27,-27 46,-44 17,-15 34,-29 49,-41 62,-50 129,-95 201,-133 71,-38 147,-71 228,-98 79,-27 162,-47 247,-60 85,-14 172,-21 260,-21 87,0 174,7 259,21 85,13 168,33 247,60z"/> <path class="fil2" d="M5447 5057l1042 3c100,-9 184,-42 252,-92 74,-55 129,-130 163,-213 13,-33 23,-69 30,-105l0 -3c6,-36 9,-71 8,-105 -1,-36 -6,-71 -15,-105 -8,-32 -21,-63 -37,-94 -38,-71 -99,-133 -184,-175 -81,-41 -184,-65 -312,-65 -60,0 -119,6 -178,11 -47,3 -87,-33 -90,-80 -1,-4 -1,-8 0,-12 4,-53 11,-109 12,-163l0 -19c0,-57 -7,-113 -20,-166 -14,-55 -34,-108 -60,-159 -28,-54 -62,-105 -101,-153 -41,-48 -88,-94 -140,-136 -53,-43 -112,-82 -175,-116 -64,-34 -131,-63 -201,-86 -69,-24 -143,-42 -220,-54 -74,-11 -152,-18 -233,-18 -81,0 -159,7 -232,18 -77,12 -151,30 -221,54 -70,23 -137,52 -200,86 -64,34 -122,73 -176,116 -15,13 -29,25 -42,36 -9,8 -21,19 -34,32 -3,4 -6,7 -9,10 -13,12 -23,24 -33,34 -11,12 -22,25 -33,40l-26 32c-14,17 -32,28 -52,31l-41 7c-75,14 -146,31 -211,53 -243,80 -411,213 -509,369 -93,147 -125,314 -102,476 9,-10 18,-19 26,-28l7 -7c12,-12 27,-27 46,-44 17,-15 34,-29 49,-41 62,-50 129,-95 201,-133 71,-38 147,-71 228,-98 79,-27 162,-47 247,-60 85,-14 172,-21 260,-21 87,0 174,7 259,21 85,13 168,33 247,60 81,27 157,60 228,98 72,38 139,83 201,133 60,48 115,102 163,160 49,58 90,119 123,183 32,63 57,129 74,197 16,67 25,136 25,206 0,17 0,-8 -1,21l0 14 -1 15 -2 35zm-2415 -477l-3 1c-412,73 -661,275 -767,513 -50,112 -68,232 -57,351 12,118 53,235 123,339 152,231 442,400 847,400 4,0 8,0 12,1l2445 7c99,-8 184,-42 251,-92 75,-55 130,-130 163,-213 13,-33 23,-69 30,-105l1 -3c6,-36 8,-71 7,-105 -1,-36 -6,-71 -15,-105 -8,-32 -20,-63 -37,-94 -37,-71 -98,-132 -184,-175 -81,-41 -184,-64 -312,-64l0 -1 -26 0c-50,3 -101,7 -151,11 -47,3 -88,-33 -91,-80l0 -12c4,-51 9,-102 12,-153l1 -10c0,-17 -1,14 -1,-19 0,-57 -7,-113 -20,-166 -13,-55 -33,-108 -59,-159 -28,-54 -62,-105 -102,-153 -40,-48 -87,-94 -139,-136 -54,-43 -112,-82 -176,-116 -63,-34 -130,-63 -200,-86 -70,-23 -144,-41 -221,-54 -73,-11 -151,-17 -232,-17 -81,0 -159,6 -233,17 -77,13 -151,31 -220,54 -70,23 -137,52 -201,86 -63,34 -122,73 -175,116 -16,13 -30,25 -42,36 -10,8 -21,19 -35,32 -2,4 -6,7 -9,10 -12,12 -23,24 -33,35 -10,11 -21,24 -33,39l-26 32c-13,17 -32,28 -52,31l-40 7zm-122 -149c-3,-11 -5,-23 -7,-35 -37,-208 1,-426 122,-616 118,-188 316,-347 600,-441 72,-24 151,-44 235,-59l9 -1 6 -7c11,-14 24,-30 39,-47 13,-14 25,-27 37,-39 2,-3 4,-5 7,-7 12,-12 27,-27 46,-44 17,-15 33,-29 49,-42 62,-49 129,-94 201,-133 71,-38 147,-71 228,-97 79,-27 162,-47 247,-61 85,-13 172,-20 259,-20 88,0 175,7 259,20 86,14 169,34 248,61 81,26 157,59 227,97 73,39 140,84 202,133 60,49 115,103 163,161 48,58 89,119 122,183 33,63 57,129 74,197 17,67 25,136 25,206l0 21c0,10 0,19 -1,29l-1 20 -3 27c32,-2 59,-4 91,-4 155,0 284,31 388,82 119,60 205,147 258,248 22,41 39,86 51,132 12,46 19,93 21,141 1,48 -2,95 -10,141l-1 3c-8,46 -21,93 -40,138 -44,112 -119,213 -220,287 -91,68 -205,113 -337,125l-8 0 -448 -1c57,48 102,104 135,166 22,41 39,86 51,132 12,46 19,94 20,141 2,48 -2,95 -10,141l0 3c-8,46 -22,93 -40,139 -45,111 -119,212 -220,286 -92,68 -205,114 -338,125l-7 0 -2456 -7 -17 0c-464,-3 -799,-204 -980,-477 -85,-127 -136,-271 -150,-417 -14,-147 9,-297 71,-437 119,-267 381,-495 803,-593z"/> </g> <g id="_3166634175936"> <polygon class="fil0" points="0,0 9144,0 9144,9144 0,9144 "/> <path class="fil1" d="M6672 5528c-42,-80 -111,-150 -208,-198 -91,-45 -207,-72 -349,-72l-30 0c-56,3 -112,7 -168,11 -47,3 -87,-32 -90,-79l0 -12c4,-57 9,-114 13,-171l1 -10c0,-17 -1,10 -1,-21 0,-65 -7,-127 -22,-186 -15,-62 -38,-122 -67,-178 -31,-61 -69,-118 -113,-171 -46,-55 -98,-106 -156,-153 -60,-47 -125,-91 -196,-129 -70,-38 -145,-70 -223,-96 -78,-26 -160,-46 -246,-60 -82,-13 -169,-20 -259,-20 -90,0 -177,7 -259,20 -86,14 -168,34 -246,60 -26,9 -52,18 -78,29 55,114 129,217 218,306 205,204 487,331 798,331 42,0 81,-2 118,-6 39,-4 78,-10 116,-18 46,-10 91,20 100,65 4,20 1,39 -7,55 -108,218 -275,401 -480,528 -199,123 -433,195 -684,195 -358,0 -683,-146 -918,-381 -139,-139 -247,-311 -312,-502 -220,111 -366,268 -444,441 -56,126 -76,261 -63,394 13,132 59,263 137,380 171,258 494,447 946,447 4,0 8,0 12,1l2709 8c112,-10 207,-48 283,-104 84,-62 146,-146 184,-240 15,-37 26,-77 33,-118 8,-41 11,-82 10,-122 -2,-40 -7,-79 -17,-117 -10,-37 -23,-72 -42,-107z"/> <path class="fil3" d="M4749 5208c130,-81 243,-188 331,-314 -30,3 -59,4 -89,4 -358,0 -683,-146 -918,-381 -102,-102 -188,-222 -252,-354 -67,37 -129,79 -186,124 -18,14 -34,28 -48,40 -12,11 -24,23 -37,35 -3,4 -7,8 -11,12 -14,14 -26,27 -37,39 -12,13 -24,28 -37,44l-29 36c-13,17 -32,27 -51,31l-45 8c-94,16 -180,38 -259,66 56,171 151,324 275,448 205,204 487,331 798,331 219,0 423,-62 595,-169z"/> <path class="fil4" d="M3757 4005c-42,-128 -64,-264 -64,-406 0,-102 12,-201 34,-296 9,-38 19,-76 32,-113 -191,72 -356,193 -482,348 -157,193 -251,441 -251,710 0,63 5,124 15,184 83,-28 173,-51 270,-68l13 -2 8 -11c13,-15 27,-32 44,-51 14,-16 28,-31 43,-45 1,-2 3,-4 5,-6 15,-15 32,-31 50,-48 19,-16 37,-32 54,-46 68,-54 142,-103 222,-146l7 -4z"/> <path class="fil2" d="M5318 4656c-108,218 -275,401 -480,528 -199,123 -433,195 -684,195 -358,0 -683,-146 -918,-381 -139,-139 -247,-311 -312,-502 -220,111 -366,268 -444,441 -56,126 -76,261 -63,394 13,132 59,263 137,380 171,258 494,447 946,447 4,0 8,0 12,1l2709 8c112,-10 207,-48 283,-104 84,-62 146,-146 184,-240 15,-37 26,-77 33,-118 8,-41 11,-82 10,-122 -2,-40 -7,-79 -17,-117 -10,-37 -23,-72 -42,-107 -42,-80 -111,-150 -208,-198 -91,-45 -207,-72 -349,-72l-30 0c-56,3 -112,7 -168,11 -47,3 -87,-32 -90,-79l0 -12c4,-57 9,-114 13,-171l1 -10c0,-17 -1,10 -1,-21 0,-65 -7,-127 -22,-186 -15,-62 -38,-122 -67,-178 -31,-61 -69,-118 -113,-171 -46,-55 -98,-106 -156,-153 -60,-47 -125,-91 -196,-129 -70,-38 -145,-70 -223,-96 -78,-26 -160,-46 -246,-60 -82,-13 -169,-20 -259,-20 -90,0 -177,7 -259,20 -86,14 -168,34 -246,60 -26,9 -52,18 -78,29 55,114 129,217 218,306 205,204 487,331 798,331 42,0 81,-2 118,-6 39,-4 78,-10 116,-18 46,-10 91,20 100,65 4,20 1,39 -7,55zm-2438 -327c-16,-81 -24,-164 -24,-249 0,-309 108,-594 289,-817 185,-227 444,-391 741,-454 46,-9 91,20 101,66 4,19 1,38 -7,55 -38,76 -68,158 -88,243 -19,83 -29,169 -29,258 0,116 17,228 50,334 28,-11 58,-22 87,-32 87,-29 178,-51 273,-66 93,-15 188,-23 285,-23 97,0 192,8 286,23 94,15 185,37 272,66 89,30 173,66 251,108 79,43 153,92 221,146 66,54 127,113 180,176 52,64 98,131 134,202 35,69 62,141 81,215 18,74 27,150 27,227l0 38 -1 16 -2 22 -3 41c25,-2 50,-3 76,-5l35 0c170,0 311,33 425,90 130,65 224,160 282,270 24,46 43,94 56,144 13,51 20,103 22,155 2,53 -2,106 -11,157 -9,51 -24,102 -44,152 -49,121 -130,232 -241,313 -100,74 -224,124 -369,136l-7 0 -2720 -8c-3,0 -5,1 -8,1 -3,0 -6,-1 -9,-1 -511,-3 -880,-224 -1079,-523 -93,-140 -148,-298 -164,-458 -15,-162 10,-326 78,-479 96,-216 278,-410 554,-539zm161 -65c83,-28 173,-51 270,-68l13 -2 8 -11c13,-15 27,-32 44,-51 14,-16 28,-31 43,-45 1,-2 3,-4 5,-6 15,-15 32,-31 50,-48 19,-16 37,-32 54,-46 68,-54 142,-103 222,-146l7 -4c-42,-128 -64,-264 -64,-406 0,-102 12,-201 34,-296 9,-38 19,-76 32,-113 -191,72 -356,193 -482,348 -157,193 -251,441 -251,710 0,63 5,124 15,184zm780 -269c-67,37 -129,79 -186,124 -18,14 -34,28 -48,40 -12,11 -24,23 -37,35 -3,4 -7,8 -11,12 -14,14 -26,27 -37,39 -12,13 -24,28 -37,44l-29 36c-13,17 -32,27 -51,31l-45 8c-94,16 -180,38 -259,66 56,171 151,324 275,448 205,204 487,331 798,331 219,0 423,-62 595,-169 130,-81 243,-188 331,-314 -30,3 -59,4 -89,4 -358,0 -683,-146 -918,-381 -102,-102 -188,-222 -252,-354z"/> </g> </g> </svg>