<?xml version='1.0' encoding='utf-8'?>
<svg xmlns="http://www.w3.org/2000/svg" width="91.44mm" height="91.44mm" version="1.1" style="shape-rendering:geometricPrecision; text-rendering:geometricPrecision; image-rendering:optimizeQuality; fill-rule:evenodd; clip-rule:evenodd" viewBox="0 0 9144 9144"> <defs> <style type="text/css">  .fil1 {fill:#E6E9EE} .fil2 {fill:#FCCF4D} .fil0 {fill:white} .fil3 {fill:#364F6B;fill-rule:nonzero}  </style> </defs> <g id="Layer_x0020_1"> <metadata id="CorelCorpID_0Corel-Layer"/> <g id="_3166736535760"> <polygon class="fil0" points="0,0 9144,0 9144,9144 0,9144 "/> <path class="fil1" d="M3457 4906c-415,72 -666,276 -773,515 -50,112 -68,233 -57,352 12,119 54,237 123,341 154,232 444,402 851,402 4,0 8,0 12,1l2452 7c100,-9 185,-43 253,-93 74,-55 130,-130 163,-213 14,-34 24,-70 30,-106 7,-37 10,-74 9,-109 -2,-35 -6,-71 -15,-105 -9,-33 -21,-65 -37,-95 -38,-71 -99,-133 -186,-176 -81,-40 -185,-64 -313,-64l0 -1c-59,0 -119,7 -178,11 -47,3 -87,-32 -90,-79l0 -12c4,-53 11,-110 13,-163 0,-18 -1,14 -1,-20 0,-57 -7,-113 -20,-166 -13,-55 -34,-109 -60,-160 -28,-54 -62,-106 -102,-153 -40,-49 -87,-95 -140,-137 -41,-34 -86,-65 -134,-93 -6,0 -11,-1 -17,-3 -19,-5 -35,-17 -46,-31 -57,-30 -117,-55 -180,-76 -70,-24 -144,-42 -221,-54 -74,-12 -152,-18 -234,-18 -81,0 -159,6 -233,18 -77,12 -151,30 -221,54 -71,23 -138,53 -202,87 -63,34 -122,73 -175,116 -16,13 -30,25 -43,36 -9,8 -21,19 -34,32l-6 6c-13,14 -26,27 -37,39l-3 4c-10,11 -19,22 -30,35l-26 33c-13,17 -32,27 -51,30l-41 8z"/> <path class="fil2" d="M4917 3139l0 196c30,10 59,20 87,32 29,12 57,25 85,40l139 -139 -72 -268 -239 139zm-729 764c-108,108 -174,256 -174,421l0 9c12,-5 25,-9 37,-13l1 0c79,-27 162,-47 248,-61 85,-13 172,-20 259,-20 88,0 175,7 260,20 86,14 169,34 248,61 46,15 91,32 134,51 1,-15 2,-31 2,-47 0,-165 -67,-313 -175,-421 -107,-107 -256,-174 -420,-174 -164,0 -313,67 -420,174zm-765 729l-70 122c24,-6 49,-11 75,-15l9 -2 6 -7c10,-13 22,-27 36,-42l4 -5c13,-15 26,-28 38,-41 2,-2 4,-4 5,-6l5 -4 -108 0zm2370 0l-197 0 -2 6c24,24 46,49 67,74 48,58 89,119 122,184 3,4 5,9 7,13l142 -37 -139 -240zm-129 -928l-139 139c14,28 27,56 39,85 12,28 23,57 32,87l197 0 139 -240 -268 -71zm-2044 311c9,-30 20,-59 32,-87 12,-29 25,-57 40,-85l-140 -139 -267 72 138 239 197 0zm368 -747l140 139c27,-14 55,-28 84,-40 28,-11 58,-22 88,-31l0 -198 -240 -138 -72 268z"/> <path class="fil3" d="M3609 6517c-3,0 -5,1 -8,1 -3,0 -6,-1 -9,-1 -465,-3 -801,-204 -983,-477 -85,-128 -135,-272 -150,-419 -14,-147 9,-297 71,-437 98,-218 290,-411 587,-527l180 -313c14,-29 43,-49 78,-49l371 0c25,-16 51,-31 77,-45 9,-5 17,-9 26,-14 0,-3 -1,-7 -1,-11 -2,-25 -4,-48 -4,-69 0,-211 86,-402 224,-541 138,-138 329,-223 540,-223 211,0 402,85 540,223 138,139 224,330 224,541 0,33 -3,68 -7,103 -2,9 -3,19 -5,28 32,20 63,40 93,62 12,-32 43,-54 79,-54l310 0c29,0 57,15 73,42l216 374c5,7 8,15 11,24 12,45 -15,91 -60,103l-231 62c2,8 4,16 6,25 17,67 26,136 26,206 0,18 -1,-7 -1,21 0,10 0,19 -1,29l-1 20 -2 28c31,-2 59,-3 91,-3l0 -1c156,0 285,31 389,83 120,59 205,147 259,248 22,42 39,86 51,132 12,46 19,94 20,142 2,48 -2,96 -10,143 -8,47 -22,94 -40,139 -45,112 -119,213 -220,288 -92,67 -206,113 -339,125l0 -1c-2,0 -5,1 -7,1l-2463 -8zm405 -2352c12,-5 25,-9 37,-13l1 0c79,-27 162,-47 248,-61 85,-13 172,-20 259,-20 88,0 175,7 260,20 86,14 169,34 248,61 46,15 91,32 134,51 1,-15 2,-31 2,-47 0,-165 -67,-313 -175,-421 -107,-107 -256,-174 -420,-174 -164,0 -313,67 -420,174 -108,108 -174,256 -174,421l0 9zm1243 257c-6,0 -11,-1 -17,-3 -19,-5 -35,-17 -46,-31 -57,-30 -117,-55 -180,-76 -70,-24 -144,-42 -221,-54 -74,-12 -152,-18 -234,-18 -81,0 -159,6 -233,18 -77,12 -151,30 -221,54 -71,23 -138,53 -202,87 -63,34 -122,73 -175,116 -16,13 -30,25 -43,36 -9,8 -21,19 -34,32l-6 6c-13,14 -26,27 -37,39l-3 4c-10,11 -19,22 -30,35l-26 33c-13,17 -32,27 -51,30l-41 8c-415,72 -666,276 -773,515 -50,112 -68,233 -57,352 12,119 54,237 123,341 154,232 444,402 851,402 4,0 8,0 12,1l2452 7c100,-9 185,-43 253,-93 74,-55 130,-130 163,-213 14,-34 24,-70 30,-106 7,-37 10,-74 9,-109 -2,-35 -6,-71 -15,-105 -9,-33 -21,-65 -37,-95 -38,-71 -99,-133 -186,-176 -81,-40 -185,-64 -313,-64l0 -1c-59,0 -119,7 -178,11 -47,3 -87,-32 -90,-79l0 -12c4,-53 11,-110 13,-163 0,-18 -1,14 -1,-20 0,-57 -7,-113 -20,-166 -13,-55 -34,-109 -60,-160 -28,-54 -62,-106 -102,-153 -40,-49 -87,-95 -140,-137 -41,-34 -86,-65 -134,-93zm-340 -1255c30,10 59,20 87,32 29,12 57,25 85,40l139 -139 -72 -268 -239 139 0 196zm22 188c-39,-16 -80,-30 -121,-40 -40,-6 -71,-41 -71,-84l0 -309c0,-29 15,-58 42,-73l375 -216c7,-5 15,-9 24,-11 45,-12 91,15 103,60l112 417c9,29 2,63 -21,86l-219 219c-27,27 -70,33 -104,12 -38,-23 -78,-43 -120,-61zm725 181l-139 139c14,28 27,56 39,85 12,28 23,57 32,87l197 0 139 -240 -268 -71zm-305 65l220 -219c20,-21 51,-30 81,-22l422 113c7,2 14,4 20,8 41,24 54,75 31,116l-215 372c-14,28 -43,47 -76,47l-310 0c-38,0 -72,-26 -82,-64 -10,-44 -24,-86 -42,-128 -16,-39 -36,-78 -58,-114 -23,-33 -20,-79 9,-109zm-2006 985c24,-6 49,-11 75,-15l9 -2 6 -7c10,-13 22,-27 36,-42l4 -5c13,-15 26,-28 38,-41 2,-2 4,-4 5,-6l5 -4 -108 0 -70 122zm2241 -116c24,24 46,49 67,74 48,58 89,119 122,184 3,4 5,9 7,13l142 -37 -139 -240 -197 0 -2 6zm-1606 -1370l140 139c27,-14 55,-28 84,-40 28,-11 58,-22 88,-31l0 -198 -240 -138 -72 268zm65 304l-219 -219c-20,-21 -30,-52 -22,-82l113 -421c2,-7 5,-14 9,-20 23,-41 74,-55 115,-31l370 214c30,13 50,42 50,77l0 310c0,38 -26,72 -65,82 -43,10 -86,24 -127,42 -40,16 -78,35 -115,57 -33,24 -79,21 -109,-9zm-768 204l138 239 197 0c9,-30 20,-59 32,-87 12,-29 25,-57 40,-85l-140 -139 -267 72zm16 366l-214 -372c-5,-7 -10,-16 -12,-26 -12,-45 15,-91 60,-103l416 -112c29,-10 63,-3 86,21l220 219c27,27 33,70 12,104 -23,38 -44,78 -61,119 -17,40 -30,80 -40,121 -7,41 -42,71 -84,71l-309 0c-30,0 -58,-15 -74,-42z"/> </g> </g> </svg>