<?xml version='1.0' encoding='utf-8'?>
<svg xmlns="http://www.w3.org/2000/svg" width="91.44mm" height="91.44mm" version="1.1" style="shape-rendering:geometricPrecision; text-rendering:geometricPrecision; image-rendering:optimizeQuality; fill-rule:evenodd; clip-rule:evenodd" viewBox="0 0 9144 9144"> <defs> <style type="text/css">  .fil3 {fill:#43DDE6} .fil2 {fill:#E6E9EE} .fil1 {fill:#FCCF4D} .fil0 {fill:white} .fil4 {fill:#364F6B;fill-rule:nonzero}  </style> </defs> <g id="Layer_x0020_1"> <metadata id="CorelCorpID_0Corel-Layer"/> <g id="_3166744899792"> <polygon class="fil0" points="0,0 9144,0 9144,9144 0,9144 "/> <path class="fil1" d="M4093 3229l0 236c36,11 71,23 105,38 34,14 68,30 101,48l167 -167 -86 -321 -287 166zm-1446 1681l-235 0 -166 287 320 86 167 -167c-17,-33 -33,-67 -48,-101 -14,-34 -27,-69 -38,-105zm665 731c-35,-14 -68,-30 -101,-47l-167 167 42 157 1 6 7 23 36 134 287 -166 0 -236c-36,-11 -71,-23 -105,-38zm788 -1657c-32,-18 -64,-34 -98,-47 -76,-30 -159,-46 -247,-46 -188,0 -358,76 -482,200 -123,123 -199,293 -199,481 0,188 76,358 199,482 124,123 294,199 482,199 57,0 111,-7 162,-19l140 -103c-404,-322 -344,-1023 43,-1147zm-1415 145c15,-34 31,-68 48,-101l-167 -167 -320 86 166 287 235 0c11,-36 24,-71 38,-105zm526 -578c33,-18 66,-34 101,-48 34,-14 69,-27 105,-38l0 -236 -287 -166 -86 321 167 167z"/> <path class="fil2" d="M4599 4035l-21 26c-13,17 -32,27 -52,31l-33 6c-59,10 -115,24 -166,41 -16,13 -35,19 -54,19 -199,78 -327,204 -390,345 -39,88 -53,183 -44,275 9,94 41,186 96,268 49,73 115,139 199,191 12,4 23,11 33,20 117,65 265,105 440,105l11 0 1973 6c77,-7 143,-33 195,-71 58,-43 100,-101 126,-165 10,-26 18,-54 23,-82 5,-29 8,-57 7,-84 -1,-28 -5,-55 -12,-81 -6,-24 -16,-49 -28,-73 -29,-54 -76,-101 -142,-134 -63,-32 -144,-51 -245,-51l-21 0 -121 9c-47,3 -88,-33 -91,-80l0 -12c3,-41 7,-82 10,-124l0 -22c0,-45 -5,-88 -16,-130 -10,-43 -26,-85 -47,-125 -22,-43 -49,-83 -80,-121 -32,-38 -69,-74 -110,-107 -43,-35 -89,-65 -139,-92 -51,-28 -104,-51 -160,-69 -55,-19 -114,-33 -176,-43 -58,-9 -120,-14 -185,-14 -65,0 -127,5 -186,14 -61,10 -120,24 -175,43 -56,18 -109,41 -160,69 -50,27 -97,57 -139,92 -13,10 -24,19 -33,28 -7,6 -16,14 -27,25l-9 9c-9,10 -18,19 -25,27 -8,9 -17,19 -26,31z"/> <path class="fil3" d="M6640 5844c-197,158 -267,292 -265,390 2,80 59,135 125,153 66,17 141,-2 181,-70 50,-85 54,-236 -41,-473zm-2318 0c-198,158 -267,292 -265,390 2,80 58,135 124,153 66,17 142,-2 182,-70 49,-84 54,-236 -41,-473zm1194 0c-198,158 -267,292 -265,390 2,80 58,135 125,153 65,17 141,-2 181,-70 49,-84 54,-236 -41,-473z"/> <path class="fil4" d="M4614 5362l-15 0c-194,-1 -360,-45 -497,-116 -46,20 -94,37 -145,49 -66,16 -133,25 -202,25 -235,0 -448,-96 -602,-250 -154,-154 -249,-367 -249,-602 0,-235 95,-448 249,-602 154,-154 367,-249 602,-249 108,0 212,20 308,58 81,31 156,75 223,128 56,-18 115,-32 178,-43l1 0 1 -1c9,-12 20,-24 32,-39 11,-11 20,-21 30,-31 2,-2 4,-5 6,-7 9,-9 22,-21 38,-36 15,-12 28,-24 41,-34 50,-41 105,-77 165,-109 57,-31 120,-58 186,-80 65,-22 133,-39 203,-50 69,-11 140,-17 212,-17 71,0 142,6 212,17 70,11 138,28 202,50 67,22 129,49 187,80 59,32 115,68 165,109 50,40 95,84 135,132 39,48 73,98 100,151 27,52 48,106 61,163 14,55 21,112 21,170l0 29 -1 13 -1 19c19,-1 36,-2 55,-2 128,0 235,25 321,68 100,50 171,123 216,207 19,35 33,72 43,110 10,39 15,79 17,118 1,41 -2,81 -9,120 -7,39 -18,77 -33,115 -37,93 -99,177 -184,239 -76,56 -170,94 -281,104l-7 0 -1984 -6zm-684 -235c-54,-48 -99,-101 -137,-157 -70,-106 -112,-224 -123,-346 -12,-121 7,-245 58,-360 67,-151 190,-287 372,-384 -32,-18 -64,-34 -98,-47 -76,-30 -159,-46 -247,-46 -188,0 -358,76 -482,200 -123,123 -199,293 -199,481 0,188 76,358 199,482 124,123 294,199 482,199 57,0 111,-7 162,-19 4,-1 9,-2 13,-3zm204 -60c12,4 23,11 33,20 117,65 265,105 440,105l11 0 1973 6c77,-7 143,-33 195,-71 58,-43 100,-101 126,-165 10,-26 18,-54 23,-82 5,-29 8,-57 7,-84 -1,-28 -5,-55 -12,-81 -6,-24 -16,-49 -28,-73 -29,-54 -76,-101 -142,-134 -63,-32 -144,-51 -245,-51l-21 0 -121 9c-47,3 -88,-33 -91,-80l0 -12c3,-41 7,-82 10,-124l0 -22c0,-45 -5,-88 -16,-130 -10,-43 -26,-85 -47,-125 -22,-43 -49,-83 -80,-121 -32,-38 -69,-74 -110,-107 -43,-35 -89,-65 -139,-92 -51,-28 -104,-51 -160,-69 -55,-19 -114,-33 -176,-43 -58,-9 -120,-14 -185,-14 -65,0 -127,5 -186,14 -61,10 -120,24 -175,43 -56,18 -109,41 -160,69 -50,27 -97,57 -139,92 -13,10 -24,19 -33,28 -7,6 -16,14 -27,25l-9 9c-9,10 -18,19 -25,27 -8,9 -17,19 -26,31l-21 26c-13,17 -32,27 -52,31l-33 6c-59,10 -115,24 -166,41 -16,13 -35,19 -54,19 -199,78 -327,204 -390,345 -39,88 -53,183 -44,275 9,94 41,186 96,268 49,73 115,139 199,191zm-41 -1706c36,11 71,23 105,38 34,14 68,30 101,48l167 -167 -86 -321 -287 166 0 236zm40 195c-46,-19 -92,-35 -139,-46 -41,-7 -72,-42 -72,-85l0 -349c0,-29 15,-58 43,-73l422 -244c8,-5 16,-9 25,-11 45,-12 92,15 104,60l126 471c9,30 2,63 -21,87l-247 247 -1 0c-27,27 -70,33 -104,12 -43,-26 -89,-49 -136,-69zm-1567 1623l167 -167c-17,-33 -33,-67 -48,-101 -14,-34 -27,-69 -38,-105l-235 0 -166 287 320 86zm334 -92l-248 247c-21,21 -52,30 -82,22l-475 -127 0 -1c-7,-1 -14,-4 -20,-8 -41,-23 -55,-75 -32,-116l242 -419c14,-29 43,-50 78,-50l349 0 0 1c38,0 73,26 83,65 12,49 28,97 47,145 19,45 42,89 67,131 24,33 21,80 -9,110zm230 890l287 -166 0 -236c-36,-11 -71,-23 -105,-38 -35,-14 -68,-30 -101,-47l-167 167 42 157 1 6 7 23 36 134zm415 -43l-420 242c-8,6 -17,10 -27,12 -45,13 -92,-14 -104,-60l-64 -241 -6 -22 -2 -7 -54 -201c-10,-29 -3,-63 21,-86l247 -248c28,-27 71,-33 105,-12 43,26 89,50 136,69 45,19 92,35 139,46 41,7 72,42 72,85l0 349 -1 0c0,30 -15,58 -42,74zm-501 -2654l167 167c33,-18 66,-34 101,-48 34,-14 69,-27 105,-38l0 -236 -287 -166 -86 321zm92 333l-247 -247c-21,-21 -30,-52 -22,-83l127 -475c2,-7 5,-14 9,-20 23,-41 75,-55 116,-32l419 242c29,14 50,43 50,78l0 350 -1 0c0,38 -26,73 -65,82 -49,12 -98,28 -145,48 -46,19 -89,41 -131,66 -33,24 -80,21 -110,-9zm-890 230l166 287 235 0c11,-36 24,-71 38,-105 15,-34 31,-68 48,-101l-167 -167 -320 86zm43 415l-242 -420c-5,-8 -10,-17 -12,-26 -12,-46 15,-92 60,-105l470 -126c30,-9 64,-2 87,21l248 248c27,27 33,70 12,104 -26,43 -50,89 -70,137 -18,45 -34,91 -46,138 -6,41 -41,72 -84,72l-349 0c-29,0 -58,-16 -74,-43zm2033 1422c-198,158 -267,292 -265,390 2,80 58,135 124,153 66,17 142,-2 182,-70 49,-84 54,-236 -41,-473zm-435 393c-3,-159 102,-368 416,-592 5,-5 11,-9 18,-12 43,-20 94,-1 113,42 166,354 156,590 75,728 -84,142 -238,184 -371,148 -134,-36 -247,-148 -251,-314zm2753 -393c-197,158 -267,292 -265,390 2,80 59,135 125,153 66,17 141,-2 181,-70 50,-85 54,-236 -41,-473zm-434 393c-4,-159 102,-368 415,-592 6,-5 12,-9 19,-12 42,-20 93,-1 113,42 165,354 155,590 75,728 -84,142 -238,184 -372,148 -133,-36 -247,-148 -250,-314zm-690 -393c-198,158 -267,292 -265,390 2,80 58,135 125,153 65,17 141,-2 181,-70 49,-84 54,-236 -41,-473zm-435 393c-3,-159 103,-368 416,-592 5,-5 11,-9 18,-12 43,-20 94,-1 113,42 166,354 156,590 75,728 -84,142 -238,184 -371,148 -134,-36 -247,-148 -251,-314z"/> </g> </g> </svg>