<?xml version='1.0' encoding='utf-8'?>
<svg xmlns="http://www.w3.org/2000/svg" width="91.44mm" height="91.44mm" version="1.1" style="shape-rendering:geometricPrecision; text-rendering:geometricPrecision; image-rendering:optimizeQuality; fill-rule:evenodd; clip-rule:evenodd" viewBox="0 0 9144 9144"> <defs> <style type="text/css">  .fil1 {fill:#FCCF4D} .fil0 {fill:white} .fil2 {fill:#364F6B;fill-rule:nonzero}  </style> </defs> <g id="Layer_x0020_1"> <metadata id="CorelCorpID_0Corel-Layer"/> <g id="_3166632707024"> <polygon class="fil0" points="0,0 9144,0 9144,9144 0,9144 "/> <path class="fil1" d="M5438 4741c0,-239 -97,-456 -254,-612 -156,-157 -373,-254 -612,-254 -239,0 -456,97 -612,254 -157,156 -254,373 -254,612 0,239 97,456 254,612 156,157 373,254 612,254 239,0 456,-97 612,-254 157,-156 254,-373 254,-612zm-2224 398l-321 0 -225 390 436 117 226 -226c-24,-45 -46,-91 -66,-138 -19,-46 -36,-94 -50,-143zm50 -939c20,-47 42,-93 66,-138l-226 -226 -436 117 225 390 321 0c14,-49 31,-97 50,-143zm910 -817l0 -321 -391 -225 -117 436 227 227c45,-25 90,-47 137,-66 47,-20 95,-36 144,-51zm1077 117l226 -227 -116 -436 -391 226 0 320c49,14 97,31 144,51 47,19 92,41 137,66zm679 843l320 0 226 -390 -436 -117 -227 226c25,45 47,91 66,138 20,46 37,94 51,143zm-117 1077l227 226 436 -117 -226 -390 -320 0c-14,49 -31,97 -51,143 -19,47 -41,93 -66,138zm-843 679l0 320 391 226 116 -436 -226 -227c-45,25 -90,47 -138,67 -46,19 -94,36 -143,50zm-1077 -117l-227 227 56 208 1 5 8 30 1 0 51 193 391 -225 0 -321c-49,-14 -97,-31 -144,-51 -47,-19 -92,-41 -137,-66z"/> <path class="fil2" d="M2668 3784l225 390 321 0c14,-49 31,-97 50,-143 20,-47 42,-93 66,-138l-226 -226 -436 117zm1904 -247c286,0 545,116 732,303 187,187 303,446 303,732 0,286 -116,545 -303,732 -187,187 -446,303 -732,303 -286,0 -545,-116 -732,-303 -187,-187 -303,-446 -303,-732 0,-286 116,-545 303,-732 187,-187 446,-303 732,-303zm612 423c-156,-157 -373,-254 -612,-254 -239,0 -456,97 -612,254 -157,156 -254,373 -254,612 0,239 97,456 254,612 156,157 373,254 612,254 239,0 456,-97 612,-254 157,-156 254,-373 254,-612 0,-239 -97,-456 -254,-612zm-214 -746c49,14 97,31 144,51 47,19 92,41 137,66l226 -227 -116 -436 -391 226 0 320zm79 207c-58,-24 -117,-44 -177,-59 -41,-6 -72,-41 -72,-84l0 -433 1 0c0,-29 15,-57 42,-73l525 -303c7,-5 15,-9 24,-11 45,-12 91,15 103,60l157 585c10,30 3,63 -21,87l-306 306c-27,27 -70,33 -104,13 -55,-34 -112,-63 -172,-88zm991 246l-227 226c25,45 47,91 66,138 20,46 37,94 51,143l320 0 226 -390 -436 -117zm-392 153l307 -308c20,-20 51,-29 81,-21l590 158c7,2 14,4 20,8 41,24 55,75 31,116l-302 523c-14,28 -43,47 -76,47l-434 0c-38,0 -72,-26 -82,-64 -15,-63 -35,-124 -60,-183 -24,-58 -52,-114 -85,-167 -23,-34 -20,-80 10,-109zm-2544 1657l226 -226c-24,-45 -46,-91 -66,-138 -19,-46 -36,-94 -50,-143l-321 0 -225 390 436 117zm392 -153l-307 308c-21,20 -51,29 -82,21l-589 -158c-7,-2 -14,-5 -20,-8 -40,-23 -54,-75 -31,-115l301 -522c13,-29 43,-49 77,-49l433 0c38,0 73,26 82,64 15,63 36,124 60,183 25,59 53,114 85,167 24,34 21,80 -9,109zm287 1152l391 -225 0 -321c-49,-14 -97,-31 -144,-51 -47,-19 -92,-41 -137,-66l-227 227 56 208 1 5 8 30 1 0 51 193zm518 -104l-523 302c-8,5 -16,9 -26,12 -45,12 -91,-15 -104,-60l-80 -299 -7 -29 -2 -7 -67 -250c-10,-29 -3,-63 20,-86l307 -307 1 0c26,-27 69,-33 103,-13 55,34 112,63 172,88 57,24 117,44 177,59 40,6 71,41 71,83l0 434c0,29 -15,58 -42,73zm2175 -1012l-226 -390 -320 0c-14,49 -31,97 -51,143 -19,47 -41,93 -66,138l227 226 436 -117zm-104 -517l303 525c5,7 8,15 11,24 12,45 -15,91 -60,103l-585 157c-29,10 -63,3 -86,-20l-307 -308c-27,-27 -33,-69 -13,-103 34,-55 63,-113 88,-173 24,-57 44,-116 59,-176 6,-41 41,-71 83,-71l434 0c29,0 57,15 73,42zm-895 1197l-226 -227c-45,25 -90,47 -138,67 -46,19 -94,36 -143,50l0 320 391 226 116 -436zm-152 -392l306 306c21,21 30,52 22,82l-158 590c-1,7 -4,14 -8,21 -23,40 -75,54 -116,30l-523 -302c-28,-14 -48,-43 -48,-76l0 -433 1 0c0,-38 26,-73 64,-82 63,-16 124,-36 184,-61 58,-24 114,-52 167,-84 33,-24 79,-21 109,9zm-1659 -2544l227 227c45,-25 90,-47 137,-66 47,-20 95,-36 144,-51l0 -321 -391 -225 -117 436zm153 392l-307 -307c-20,-21 -30,-51 -22,-82 26,-96 52,-193 78,-290l80 -299 1 0c2,-7 4,-14 8,-20 23,-41 75,-55 115,-31l522 301c29,13 49,43 49,77l0 434c0,38 -26,72 -65,82 -62,15 -124,35 -183,60 -58,24 -114,52 -167,84 -33,24 -79,21 -109,-9zm-1047 805l-302 -523c-5,-7 -9,-16 -12,-26 -12,-45 15,-91 60,-103l585 -157c29,-10 63,-3 86,20l307 308c27,27 33,69 12,103 -33,55 -63,113 -88,173 -24,57 -43,116 -58,176 -7,41 -42,71 -84,71l-433 0c-29,0 -58,-15 -73,-42z"/> </g> </g> </svg>