<?xml version='1.0' encoding='utf-8'?>
<svg xmlns="http://www.w3.org/2000/svg" width="91.44mm" height="91.44mm" version="1.1" style="shape-rendering:geometricPrecision; text-rendering:geometricPrecision; image-rendering:optimizeQuality; fill-rule:evenodd; clip-rule:evenodd" viewBox="0 0 9144 9144"> <defs> <style type="text/css">  .fil1 {fill:#43DDE6} .fil2 {fill:#E6E9EE} .fil0 {fill:white} .fil3 {fill:#364F6B;fill-rule:nonzero}  </style> </defs> <g id="Layer_x0020_1"> <metadata id="CorelCorpID_0Corel-Layer"/> <g id="_3166739795968"> <polygon class="fil0" points="0,0 9144,0 9144,9144 0,9144 "/> <path class="fil1" d="M3257 5702c-268,209 -362,388 -359,519 3,109 80,185 170,209 90,24 193,-3 249,-96 66,-113 71,-315 -60,-632z"/> <path class="fil1" d="M4739 5702c-269,209 -362,388 -359,519 2,109 79,185 170,209 90,24 193,-3 248,-96 66,-113 72,-315 -59,-632z"/> <path class="fil1" d="M6134 5702c-269,209 -362,388 -359,519 2,109 79,185 170,209 90,24 193,-3 248,-96 66,-113 72,-315 -59,-632z"/> <path class="fil2" d="M3613 5152l2452 7c100,-8 185,-42 253,-92 74,-55 130,-131 163,-214 14,-34 24,-69 30,-106 7,-37 10,-73 9,-108 -2,-36 -6,-71 -15,-105 -9,-32 -21,-64 -37,-95 -38,-71 -99,-133 -186,-176 -81,-41 -185,-65 -313,-65 -59,0 -119,6 -178,10 -47,3 -87,-32 -90,-78l0 -13c4,-53 11,-109 13,-163 0,-18 -1,14 -1,-19 0,-58 -7,-113 -20,-166 -13,-56 -34,-109 -60,-160 -28,-55 -62,-106 -102,-154 -40,-48 -87,-94 -140,-137 -53,-43 -112,-82 -176,-116 -63,-34 -131,-63 -201,-87 -70,-23 -144,-41 -221,-53 -74,-12 -152,-18 -234,-18 -81,0 -159,6 -233,18 -77,12 -151,30 -221,53 -70,24 -138,53 -201,87 -64,34 -123,73 -176,116 -16,13 -30,25 -43,36 -9,9 -21,20 -34,33 -3,3 -6,7 -10,9 -12,13 -23,25 -33,35 -10,12 -21,25 -33,40l-26 32c-13,17 -32,28 -51,31l-41 7c-415,73 -666,276 -773,515 -50,113 -68,234 -57,353 12,119 54,236 123,341 154,231 444,401 851,401 4,0 8,1 12,1z"/> <path class="fil3" d="M3609 5152l-17 0c-465,-3 -801,-205 -983,-478 -85,-128 -135,-271 -150,-418 -14,-148 9,-298 71,-437 128,-287 420,-530 898,-614l9 -1 6 -7c11,-15 25,-30 40,-47 12,-14 25,-27 37,-40 2,-2 4,-5 6,-7 12,-12 28,-26 47,-43 17,-16 33,-30 49,-42 62,-50 129,-95 201,-134 71,-38 148,-71 229,-98 79,-26 162,-46 248,-60 85,-13 172,-21 259,-21 88,0 175,8 260,21 86,14 169,34 248,60 81,27 158,60 228,98 73,39 140,84 202,134 61,48 116,102 164,160 48,58 89,120 122,184 33,63 58,129 74,197 17,68 26,137 26,207 0,17 -1,-8 -1,21 0,10 0,19 -1,29l-1 20 -2 28c31,-2 59,-4 91,-4 156,0 285,31 389,82 120,60 205,147 259,249 22,41 39,85 51,131 12,47 19,94 20,142 2,49 -2,97 -10,144 -8,47 -22,94 -40,139 -45,112 -119,213 -220,287 -92,68 -206,114 -339,125l-7 0 -2463 -7zm-352 381c-268,209 -362,388 -359,519 3,109 80,185 170,209 90,24 193,-3 249,-96 66,-113 71,-315 -60,-632zm-527 522c-5,-192 125,-445 507,-718 6,-5 12,-9 19,-12 42,-20 93,-1 112,41 202,432 191,718 94,884 -99,168 -280,216 -437,174 -157,-42 -291,-174 -295,-369zm3404 -522c-269,209 -362,388 -359,519 2,109 79,185 170,209 90,24 193,-3 248,-96 66,-113 72,-315 -59,-632zm-528 522c-4,-192 125,-445 508,-718 6,-5 12,-9 19,-12 42,-20 92,-1 112,41 202,432 191,718 94,884 -99,168 -280,216 -438,174 -157,-42 -291,-174 -295,-369zm-867 -522c-269,209 -362,388 -359,519 2,109 79,185 170,209 90,24 193,-3 248,-96 66,-113 72,-315 -59,-632zm-528 522c-4,-192 125,-445 508,-718 6,-5 12,-9 19,-12 42,-20 92,-1 112,41 202,432 191,718 94,884 -99,168 -280,216 -438,174 -157,-42 -291,-174 -295,-369zm-598 -1072l2452 7c100,-8 185,-42 253,-92 74,-55 130,-131 163,-214 14,-34 24,-69 30,-106 7,-37 10,-73 9,-108 -2,-36 -6,-71 -15,-105 -9,-32 -21,-64 -37,-95 -38,-71 -99,-133 -186,-176 -81,-41 -185,-65 -313,-65 -59,0 -119,6 -178,10 -47,3 -87,-32 -90,-78l0 -13c4,-53 11,-109 13,-163 0,-18 -1,14 -1,-19 0,-58 -7,-113 -20,-166 -13,-56 -34,-109 -60,-160 -28,-55 -62,-106 -102,-154 -40,-48 -87,-94 -140,-137 -53,-43 -112,-82 -176,-116 -63,-34 -131,-63 -201,-87 -70,-23 -144,-41 -221,-53 -74,-12 -152,-18 -234,-18 -81,0 -159,6 -233,18 -77,12 -151,30 -221,53 -70,24 -138,53 -201,87 -64,34 -123,73 -176,116 -16,13 -30,25 -43,36 -9,9 -21,20 -34,33 -3,3 -6,7 -10,9 -12,13 -23,25 -33,35 -10,12 -21,25 -33,40l-26 32c-13,17 -32,28 -51,31l-41 7c-415,73 -666,276 -773,515 -50,113 -68,234 -57,353 12,119 54,236 123,341 154,231 444,401 851,401 4,0 8,1 12,1z"/> </g> </g> </svg>