<?xml version='1.0' encoding='utf-8'?>
<svg xmlns="http://www.w3.org/2000/svg" width="91.44mm" height="91.44mm" version="1.1" style="shape-rendering:geometricPrecision; text-rendering:geometricPrecision; image-rendering:optimizeQuality; fill-rule:evenodd; clip-rule:evenodd" viewBox="0 0 9144 9144"> <defs> <style type="text/css">  .fil1 {fill:#E6E9EE} .fil0 {fill:white} .fil2 {fill:#364F6B;fill-rule:nonzero}  </style> </defs> <g id="Layer_x0020_1"> <metadata id="CorelCorpID_0Corel-Layer"/> <g id="_3166739805088"> <polygon class="fil0" points="0,0 9144,0 9144,9144 0,9144 "/> <path class="fil1" d="M2627 4159c11,119 53,236 123,341 153,231 444,402 851,402l12 0 2451 8c101,-9 185,-43 253,-93 75,-55 130,-130 164,-214 13,-33 23,-69 30,-106 6,-37 9,-73 8,-108 -1,-36 -6,-71 -15,-105 -8,-32 -21,-64 -37,-95 -38,-71 -99,-133 -185,-176 -81,-40 -185,-64 -313,-64l0 -1 -27 0c-50,4 -101,7 -152,11 -46,3 -86,-33 -90,-79l0 -12c5,-52 9,-103 13,-154l0 -29c0,-57 -7,-113 -20,-166 -14,-56 -34,-109 -60,-160 -28,-54 -62,-106 -102,-154 -41,-48 -88,-94 -140,-136 -54,-43 -113,-82 -176,-117 -64,-34 -131,-63 -201,-86 -70,-24 -144,-42 -222,-54 -74,-12 -152,-18 -233,-18 -81,0 -159,6 -233,18 -78,12 -152,30 -222,54 -70,23 -137,52 -201,86 -63,35 -122,74 -176,117 -16,12 -30,24 -42,36 -10,8 -21,19 -35,32 -1,2 -3,4 -5,6 -16,16 -28,29 -37,39 -10,11 -22,24 -33,39l-26 33c-13,16 -32,27 -52,30l-40 7c-416,73 -667,277 -773,516 -50,112 -68,233 -57,352z"/> <path class="fil2" d="M3608 4902l-16 0c-466,-3 -802,-204 -983,-477 -85,-128 -136,-272 -150,-419 -14,-147 9,-297 71,-437 128,-287 420,-530 898,-613l9 -2 5 -7c12,-14 25,-30 40,-47 15,-16 28,-30 39,-41 1,-2 3,-4 5,-6 12,-12 27,-26 46,-43 17,-15 34,-29 49,-42 62,-50 130,-94 202,-133 71,-39 147,-71 228,-99 79,-26 162,-46 248,-60 85,-13 172,-20 260,-20 88,0 175,7 260,20 86,14 169,34 248,60 81,28 157,60 228,99 72,39 140,83 202,133 60,49 115,102 163,161 49,58 90,119 123,183 32,63 57,129 74,197 16,68 25,137 25,207l0 35 -1 15 -2 20 -2 28c32,-2 60,-3 92,-4 155,0 285,31 388,82 120,60 206,148 260,249 22,41 38,85 50,132 13,46 19,93 21,141 1,49 -2,97 -10,144 -9,47 -22,93 -41,139 -44,112 -119,213 -220,287 -92,68 -205,114 -338,125l-8 0 -2463 -7zm1867 762c-39,26 -91,15 -117,-23 -26,-39 -15,-92 24,-118l1 0 -20 -12c-40,-23 -54,-75 -31,-115 24,-40 75,-54 116,-31l19 11c3,-47 43,-82 90,-80 46,3 82,43 79,90l-5 85 198 114 0 -229 -76 -38c-42,-21 -59,-71 -38,-113 21,-42 71,-58 113,-38l1 1 0 -23c0,-47 38,-85 84,-85 47,0 85,38 85,85l0 23 1 -1c42,-20 92,-4 113,38 21,42 4,92 -38,113l-76 38 0 229 198 -114 -5 -85c-3,-47 33,-87 79,-90 47,-2 87,33 90,80l0 1 19 -12c41,-23 92,-9 116,31 23,40 9,92 -31,115l-20 12 1 0c39,26 50,79 24,118 -26,38 -78,49 -117,23l-71 -47 -198 115 198 114 71 -47c39,-26 91,-15 117,24 26,39 15,91 -24,117l-1 1 20 11c40,23 54,75 31,116 -24,40 -75,54 -116,30l-19 -11 0 1c-3,46 -43,82 -90,79 -46,-2 -82,-42 -79,-89l5 -85 -198 -115 0 229 76 38c42,21 59,72 38,113 -21,42 -71,59 -113,38l-1 0 0 23c0,46 -38,84 -85,84 -46,0 -84,-38 -84,-84l0 -23 -1 0c-42,21 -92,4 -113,-38 -21,-41 -4,-92 38,-113l76 -38 0 -229 -198 114 5 86c3,47 -33,87 -79,89 -47,3 -87,-33 -90,-79l0 -1 -20 11c-40,24 -92,10 -115,-31 -23,-40 -9,-92 31,-115l20 -11 -1 -1c-39,-26 -50,-78 -24,-117 26,-39 78,-50 117,-24l71 47 199 -114 -199 -115 -71 47zm-371 -141c38,26 49,79 23,118 -25,38 -78,49 -117,23l-71 -47 -198 115 198 114 71 -47c39,-26 92,-15 117,24 26,39 15,91 -23,117l-1 1 19 11c40,23 54,75 31,115 -23,41 -75,55 -115,31l-20 -11 0 1c-3,46 -43,82 -89,79 -47,-2 -82,-42 -80,-89l6 -86 -198 -114 0 229 76 38c41,21 58,72 37,113 -20,42 -71,59 -113,38l0 23c0,46 -38,84 -85,84 -47,0 -85,-38 -85,-84l0 -23 -1 0c-41,21 -92,4 -113,-38 -20,-41 -4,-92 38,-113l76 -38 0 -229 -198 115 5 85c3,47 -32,87 -79,89 -47,3 -87,-33 -89,-79l0 -1 -20 11c-40,24 -92,10 -115,-30 -24,-41 -10,-93 30,-116l20 -11 -1 -1c-39,-26 -49,-78 -24,-117 26,-39 79,-50 118,-24l71 47 198 -114 -198 -115 -71 47c-39,26 -92,15 -118,-23 -25,-39 -15,-92 24,-118l1 0 -20 -12c-40,-23 -54,-75 -30,-115 23,-40 75,-54 115,-31l20 12 0 -1c2,-47 42,-82 89,-80 47,3 82,43 79,90l-5 85 198 114 0 -229 -76 -38c-42,-21 -58,-71 -38,-113 21,-42 72,-58 113,-38l1 1 0 -23c0,-47 38,-85 85,-85 47,0 85,38 85,85l0 23 0 -1c42,-20 93,-4 113,38 21,42 4,92 -37,113l-76 38 0 229 198 -114 -6 -85c-2,-47 33,-87 80,-90 46,-2 86,33 89,80l20 -11c40,-23 92,-9 115,31 24,40 10,92 -31,115l-19 12 1 0zm-2313 141c-39,26 -91,15 -117,-23 -26,-39 -15,-92 24,-118l1 0 -20 -12c-40,-23 -54,-74 -31,-115 23,-40 75,-54 115,-31l20 12 0 -1c3,-47 43,-82 90,-80 46,3 82,43 79,90l-5 85 198 114 0 -229 -76 -38c-42,-21 -59,-71 -38,-113 21,-42 71,-58 113,-38l1 1 0 -23c0,-47 38,-85 84,-85 47,0 85,38 85,85l0 23 1 -1c42,-20 92,-4 113,38 21,42 4,92 -38,113l-76 38 0 230 198 -115 -5 -85c-3,-47 33,-87 79,-90 47,-2 87,33 90,80l0 1 20 -12c40,-23 92,-9 115,31 23,41 9,92 -31,116l-20 11 1 0c39,26 50,79 24,118 -26,38 -78,49 -117,23l-72 -47 -198 115 199 114 71 -47c39,-26 91,-15 117,24 26,39 15,91 -24,117l-1 1 20 11c40,23 54,75 31,116 -24,40 -75,54 -116,30l-19 -11 0 1c-3,46 -43,82 -90,79 -46,-2 -82,-42 -79,-89l5 -85 -198 -115 0 229 76 38c42,21 59,72 38,113 -21,42 -71,59 -113,38l-1 0 0 23c0,46 -38,84 -85,84 -46,0 -84,-38 -84,-84l0 -23 -1 0c-42,21 -92,4 -113,-38 -21,-41 -4,-92 38,-113l76 -38 0 -229 -198 115 5 85c3,47 -33,87 -79,89 -47,3 -87,-33 -90,-79l0 -1 -19 11c-41,24 -92,10 -116,-30 -23,-41 -9,-93 31,-116l20 -11 -1 -1c-39,-26 -50,-78 -24,-117 26,-39 78,-50 117,-24l71 47 199 -114 -199 -115 -71 47zm822 -931l2451 8c101,-9 185,-43 253,-93 75,-55 130,-130 164,-214 13,-33 23,-69 30,-106 6,-37 9,-73 8,-108 -1,-36 -6,-71 -15,-105 -8,-32 -21,-64 -37,-95 -38,-71 -99,-133 -185,-176 -81,-40 -185,-64 -313,-64l0 -1 -27 0c-50,4 -101,7 -152,11 -46,3 -86,-33 -90,-79l0 -12c5,-52 9,-103 13,-154l0 -29c0,-57 -7,-113 -20,-166 -14,-56 -34,-109 -60,-160 -28,-54 -62,-106 -102,-154 -41,-48 -88,-94 -140,-136 -54,-43 -113,-82 -176,-117 -64,-34 -131,-63 -201,-86 -70,-24 -144,-42 -222,-54 -74,-12 -152,-18 -233,-18 -81,0 -159,6 -233,18 -78,12 -152,30 -222,54 -70,23 -137,52 -201,86 -63,35 -122,74 -176,117 -16,12 -30,24 -42,36 -10,8 -21,19 -35,32 -1,2 -3,4 -5,6 -16,16 -28,29 -37,39 -10,11 -22,24 -33,39l-26 33c-13,16 -32,27 -52,30l-40 7c-416,73 -667,277 -773,516 -50,112 -68,233 -57,352 11,119 53,236 123,341 153,231 444,402 851,402l12 0z"/> </g> </g> </svg>