<?xml version='1.0' encoding='utf-8'?>
<svg xmlns="http://www.w3.org/2000/svg" width="91.44mm" height="91.44mm" version="1.1" style="shape-rendering:geometricPrecision; text-rendering:geometricPrecision; image-rendering:optimizeQuality; fill-rule:evenodd; clip-rule:evenodd" viewBox="0 0 9144 9144"> <defs> <style type="text/css">  .fil1 {fill:#43DDE6} .fil2 {fill:#E6E9EE} .fil3 {fill:#FCCF4D} .fil0 {fill:white} .fil4 {fill:#364F6B;fill-rule:nonzero}  </style> </defs> <g id="Layer_x0020_1"> <metadata id="CorelCorpID_0Corel-Layer"/> <g id="_3166632806816"> <polygon class="fil0" points="0,0 9144,0 9144,9144 0,9144 "/> <path class="fil1" d="M3391 6592c61,-104 66,-291 -54,-584 -247,194 -333,359 -330,480 2,100 73,169 156,192 83,22 177,-3 228,-88z"/> <path class="fil1" d="M4730 6008c-247,194 -333,359 -330,480 2,100 73,169 156,192 83,22 177,-3 228,-88 61,-104 66,-291 -54,-584z"/> <path class="fil1" d="M6042 6008c-247,194 -333,359 -330,480 2,100 73,169 156,192 83,22 177,-3 228,-88 61,-104 66,-291 -54,-584z"/> <path class="fil2" d="M3671 5479l2304 7c94,-8 173,-40 236,-86 69,-51 121,-121 152,-199 12,-31 22,-64 28,-99 6,-34 9,-68 8,-101 -2,-33 -6,-65 -14,-97 -8,-30 -20,-59 -35,-88 -35,-66 -92,-124 -172,-164 -75,-37 -172,-60 -292,-60l-24 0c-48,3 -96,7 -143,10 -47,3 -87,-32 -90,-79 -1,-4 -1,-8 0,-12 4,-50 10,-103 11,-153 1,-20 0,11 0,-18 0,-54 -6,-106 -18,-156 -13,-51 -32,-101 -57,-149 -26,-51 -58,-99 -95,-143 -38,-46 -82,-89 -131,-128 -50,-41 -105,-77 -164,-109 -60,-32 -123,-60 -189,-81 -65,-22 -135,-39 -207,-51 -69,-11 -142,-16 -219,-16 -76,0 -149,5 -218,16 -73,12 -142,29 -208,51 -66,21 -129,49 -188,81 -60,32 -115,68 -165,109 -15,12 -28,23 -40,33 -8,8 -19,18 -32,31 -1,2 -3,4 -5,5 -15,15 -26,27 -34,36 -10,11 -20,23 -31,37l-25 31c-13,17 -32,27 -51,30l0 1 -38 6c-389,68 -624,259 -723,482 -47,105 -64,218 -54,329 11,111 50,220 115,318 143,216 415,375 796,375 4,0 8,1 12,1z"/> <path class="fil3" d="M3675 3636c58,-46 121,-88 188,-125 -14,-44 -25,-89 -34,-136 -12,-67 -18,-135 -18,-203 0,-88 10,-173 29,-255 6,-25 12,-49 20,-72 -150,60 -281,158 -382,282 -132,163 -211,371 -211,598 0,39 2,77 7,114l3 26c68,-22 141,-40 218,-53l7 -2 4 -5c11,-13 23,-28 38,-44l36 -39c2,-2 3,-4 5,-5 11,-11 26,-25 44,-41 16,-15 32,-28 46,-40z"/> <path class="fil4" d="M3117 3756c-5,-23 -8,-47 -11,-70 -5,-45 -8,-89 -8,-134 0,-267 93,-512 249,-704 159,-196 383,-337 638,-391 46,-9 91,20 100,66 4,19 1,38 -7,54 -31,65 -56,133 -73,205 -16,69 -25,142 -25,217 0,60 5,117 15,172 6,33 14,65 23,96 21,-8 42,-15 63,-22 75,-25 153,-45 234,-57 80,-13 162,-20 245,-20 83,0 165,7 245,20 81,12 160,32 234,57 77,25 149,56 216,92 68,37 132,79 190,126 57,46 109,97 155,152 45,55 84,113 116,174 30,59 54,121 70,186 15,64 24,129 24,196 0,14 -1,-11 -1,19l0 14 -1 14 -3 39c28,-2 53,-3 81,-3 147,0 269,29 368,78 113,57 195,140 246,236 20,39 37,81 48,125 11,43 18,89 19,134 2,46 -2,92 -9,136 -8,44 -21,89 -39,132 -42,106 -113,202 -208,272 -88,64 -195,108 -321,119l0 -1c-3,1 -5,1 -7,1l-2317 -7 -16 0c-439,-3 -756,-193 -928,-451 -80,-121 -128,-257 -142,-396 -13,-140 8,-282 67,-414 83,-185 237,-350 470,-462zm220 2084c-247,194 -333,359 -330,480 2,100 73,169 156,192 83,22 177,-3 228,-88 61,-104 66,-291 -54,-584zm-499 483c-4,-182 118,-421 479,-679 6,-5 12,-9 19,-12 42,-20 93,-1 112,41 191,408 180,679 88,836 -94,160 -267,206 -417,166 -150,-40 -277,-166 -281,-352zm3204 -483c-247,194 -333,359 -330,480 2,100 73,169 156,192 83,22 177,-3 228,-88 61,-104 66,-291 -54,-584zm-499 483c-4,-182 118,-421 480,-679 5,-5 11,-9 18,-12 43,-20 93,-1 113,41 190,408 180,679 87,836 -94,160 -267,206 -417,166 -149,-40 -277,-166 -281,-352zm-813 -483c-247,194 -333,359 -330,480 2,100 73,169 156,192 83,22 177,-3 228,-88 61,-104 66,-291 -54,-584zm-499 483c-4,-182 118,-421 480,-679 5,-5 11,-9 18,-12 43,-20 93,-1 113,41 190,408 180,679 87,836 -94,160 -266,206 -417,166 -149,-40 -277,-166 -281,-352zm-368 -2985c-14,-44 -25,-89 -34,-136 -12,-67 -18,-135 -18,-203 0,-88 10,-173 29,-255 6,-25 12,-49 20,-72 -150,60 -281,158 -382,282 -132,163 -211,371 -211,598 0,39 2,77 7,114 1,9 2,18 3,26 68,-22 141,-40 218,-53l7 -2 4 -5c11,-13 23,-28 38,-44 14,-15 26,-28 36,-39 2,-2 3,-4 5,-5 11,-11 26,-25 44,-41 16,-15 32,-28 46,-40 58,-46 121,-88 188,-125zm-192 1972l2304 7c94,-8 173,-40 236,-86 69,-51 121,-121 152,-199 12,-31 22,-64 28,-99 6,-34 9,-68 8,-101 -2,-33 -6,-65 -14,-97 -8,-30 -20,-59 -35,-88 -35,-66 -92,-124 -172,-164 -75,-37 -172,-60 -292,-60l-24 0c-48,3 -96,7 -143,10 -47,3 -87,-32 -90,-79 -1,-4 -1,-8 0,-12 4,-50 10,-103 11,-153 1,-20 0,11 0,-18 0,-54 -6,-106 -18,-156 -13,-51 -32,-101 -57,-149 -26,-51 -58,-99 -95,-143 -38,-46 -82,-89 -131,-128 -50,-41 -105,-77 -164,-109 -60,-32 -123,-60 -189,-81 -65,-22 -135,-39 -207,-51 -69,-11 -142,-16 -219,-16 -76,0 -149,5 -218,16 -73,12 -142,29 -208,51 -66,21 -129,49 -188,81 -60,32 -115,68 -165,109 -15,12 -28,23 -40,33 -8,8 -19,18 -32,31 -1,2 -3,4 -5,5 -15,15 -26,27 -34,36 -10,11 -20,23 -31,37l-25 31c-13,17 -32,27 -51,30l0 1 -38 6c-389,68 -624,259 -723,482 -47,105 -64,218 -54,329 11,111 50,220 115,318 143,216 415,375 796,375 4,0 8,1 12,1z"/> </g> </g> </svg>